# xmcd CD database file
#
# Track frame offsets:
#	150
#	25095
#	46799
#	72089
#	94745
#	124309
#	141601
#	171867
#	188850
#	213532
#	245203
#	277686
#	297965
#
# Disc length: 4225 seconds
#
# Revision: 0
# Processed by: cddbd v1.5.1PL0 Copyright (c) Steve Scherf et al.
# Submitted via: CDex 1.51
#
DISCID=c7107f0d
DTITLE=Various Artist - KPLU School of Jazz
DYEAR=2005
DGENRE=Jazz
TTITLE0=Newport feat. Thomas Mariott - Filthy McNasty
TTITLE1=Garfield feat. Ernestine Anderson - Street of Dreams
TTITLE2=Roosevelt feat. Jay Thomas - I Thought About You
TTITLE3=Mountlake Terrace feat. Michael Brockman - Tricotism
TTITLE4=Stadium feat. Tracy Knoop - Hunting Wabbits
TTITLE5=Kent-Meridian feat. Darren Montamedy - Groove Blues
TTITLE6=Washington MS feat. Bill Anthony - All the Things You Are
TTITLE7=Ballard feat. Steve Korn - Queen Bee
TTITLE8=Shorewood feat. Vern Sielert - Chronometry
TTITLE9=Roosevelt feat. Jay Thomas - One by One
TTITLE10=Edmonds-Woodway feat. Doug Miller - A Night in Tunisia
TTITLE11=Mountlake Terrace feat. Michael Brockman - Where Am I
TTITLE12=Garfield - In a Mellow Tone
EXTD=YEAR: 2005
EXTT0=
EXTT1=
EXTT2=
EXTT3=
EXTT4=
EXTT5=
EXTT6=
EXTT7=
EXTT8=
EXTT9=
EXTT10=
EXTT11=
EXTT12=
PLAYORDER=
